<svg width="28" height="24" viewBox="0 0 28 24" fill="none" xmlns="http://www.w3.org/2000/svg">
<path fill-rule="evenodd" clip-rule="evenodd" d="M0.349354 23.7937H8.84373V15.4404H0.349354V23.7937Z" fill="#415AFF"/>
<path fill-rule="evenodd" clip-rule="evenodd" d="M16.8575 0.959473C16.8575 1.15129 16.8444 1.34325 16.8315 1.52235C16.6754 4.05523 15.856 6.51127 14.4641 8.6475V8.7115C16.9486 8.7115 18.9649 10.6943 18.9649 13.1377V23.7808H27.4592V13.5084C27.4592 7.36837 22.9974 2.09795 16.8575 0.959473Z" fill="#415AFF"/>
<path fill-rule="evenodd" clip-rule="evenodd" d="M18.9651 23.7937H27.4594V15.4404H18.9651V23.7937Z" fill="#415AFF"/>
<path fill-rule="evenodd" clip-rule="evenodd" d="M0.687553 10.5856C1.4985 10.4459 4.28605 9.55943 4.28605 9.55943C4.28605 9.55943 6.75429 8.24234 7.85267 5.81098C8.65539 4.03422 8.0153 2.57698 7.68438 2.00781C4.05532 3.71276 1.55089 6.92877 0.687553 10.5856Z" fill="#62B9F9"/>
<path fill-rule="evenodd" clip-rule="evenodd" d="M6.67295 7.88163C4.04062 7.96752 1.45034 9.04548 1.09981 9.19632C0.646191 10.4481 0.390117 11.7724 0.356409 13.1219L0.350007 13.4117L0.349354 13.7693C5.35535 14.0618 9.88945 11.761 12.5297 8.07595C11.3237 8.25123 9.45685 7.79079 6.67295 7.88163Z" fill="#62B9F9"/>
</svg>
