<svg width="20" height="20" viewBox="0 0 20 20" fill="none" xmlns="http://www.w3.org/2000/svg">
<path d="M10.0076 0.0161133C7.29395 0.0161133 6.95369 0.0276152 5.88798 0.0762408C4.82448 0.124787 4.09815 0.293668 3.46257 0.540683C2.80553 0.796026 2.24832 1.13767 1.69286 1.69314C1.13739 2.24861 0.795742 2.80581 0.540399 3.46286C0.293383 4.0984 0.124503 4.82473 0.075957 5.88822C0.0273314 6.95395 0.0158691 7.2942 0.0158691 10.0078C0.0158691 12.7213 0.0273314 13.0616 0.075957 14.1273C0.124503 15.1908 0.293383 15.9171 0.540399 16.5527C0.795742 17.2097 1.13739 17.7669 1.69286 18.3224C2.24832 18.878 2.80553 19.2195 3.46257 19.475C4.09815 19.7219 4.82448 19.8908 5.88798 19.9393C6.95369 19.9879 7.29395 19.9994 10.0076 19.9994C12.7211 19.9994 13.0614 19.9879 14.1271 19.9393C15.1906 19.8908 15.9169 19.7219 16.5524 19.475C17.2095 19.2195 17.7667 18.878 18.3222 18.3224C18.8777 17.7669 19.2193 17.2097 19.4747 16.5527C19.7217 15.9171 19.8906 15.1908 19.939 14.1273C19.9876 13.0616 19.9991 12.7213 19.9991 10.0078C19.9991 7.2942 19.9876 6.95395 19.939 5.88822C19.8906 4.82473 19.7217 4.0984 19.4747 3.46286C19.2193 2.80581 18.8777 2.24861 18.3222 1.69314C17.7667 1.13767 17.2095 0.796026 16.5524 0.540683C15.9169 0.293668 15.1906 0.124787 14.1271 0.0762408C13.0614 0.0276152 12.7211 0.0161133 10.0076 0.0161133ZM10.0076 1.81645C12.6754 1.81645 12.9914 1.8266 14.045 1.87467C15.0192 1.91914 15.5482 2.0819 15.9003 2.2187C16.3667 2.39995 16.6995 2.6165 17.0491 2.96613C17.3988 3.31575 17.6153 3.64862 17.7966 4.11499C17.9333 4.46706 18.0962 4.99612 18.1407 5.97029C18.1886 7.02387 18.199 7.33989 18.199 10.0078C18.199 12.6757 18.1886 12.9917 18.1407 14.0453C18.0962 15.0194 17.9333 15.5485 17.7966 15.9006C17.6153 16.367 17.3988 16.6998 17.0491 17.0493C16.6995 17.399 16.3667 17.6155 15.9003 17.7969C15.5482 17.9336 15.0192 18.0965 14.045 18.1409C12.9916 18.1889 12.6756 18.1992 10.0076 18.1992C7.33945 18.1992 7.0235 18.1889 5.97004 18.1409C4.99586 18.0965 4.46681 17.9336 4.11474 17.7969C3.64835 17.6155 3.31551 17.399 2.96585 17.0493C2.61623 16.6998 2.39967 16.367 2.21846 15.9006C2.08162 15.5485 1.91884 15.0194 1.87439 14.0453C1.82632 12.9917 1.81616 12.6757 1.81616 10.0078C1.81616 7.33989 1.82632 7.02387 1.87439 5.97029C1.91884 4.99612 2.08162 4.46706 2.21846 4.11499C2.39967 3.64862 2.61623 3.31575 2.96585 2.96613C3.31551 2.6165 3.64835 2.39995 4.11474 2.2187C4.46681 2.0819 4.99586 1.91914 5.97004 1.87467C7.02361 1.8266 7.33965 1.81645 10.0076 1.81645Z" fill="black"/>
<path d="M10.0076 13.3384C8.16814 13.3384 6.67701 11.8472 6.67701 10.0078C6.67701 8.16838 8.16814 6.67724 10.0076 6.67724C11.847 6.67724 13.3381 8.16838 13.3381 10.0078C13.3381 11.8472 11.847 13.3384 10.0076 13.3384ZM10.0076 4.87695C7.17387 4.87695 4.87671 7.17409 4.87671 10.0078C4.87671 12.8415 7.17387 15.1387 10.0076 15.1387C12.8413 15.1387 15.1385 12.8415 15.1385 10.0078C15.1385 7.17409 12.8413 4.87695 10.0076 4.87695Z" fill="#030404"/>
<path d="M16.5401 4.67359C16.5401 5.33579 16.0033 5.87258 15.3411 5.87258C14.6789 5.87258 14.1421 5.33579 14.1421 4.67359C14.1421 4.0114 14.6789 3.47461 15.3411 3.47461C16.0033 3.47461 16.5401 4.0114 16.5401 4.67359Z" fill="#030404"/>
</svg>
