<svg width="20" height="19" viewBox="0 0 20 19" fill="none" xmlns="http://www.w3.org/2000/svg">
<path fill-rule="evenodd" clip-rule="evenodd" d="M19.9149 18.0372H15.7052V11.9499C15.7052 10.3566 15.0466 9.2689 13.5986 9.2689C12.491 9.2689 11.875 10.0029 11.5883 10.7103C11.4808 10.9642 11.4976 11.3179 11.4976 11.6717V18.0372H7.32702C7.32702 18.0372 7.38078 7.2542 7.32702 6.27403H11.4976V8.12017C11.744 7.31296 13.0767 6.16092 15.2035 6.16092C17.8419 6.16092 19.9149 7.85295 19.9149 11.4964V18.0372ZM3.10939 4.80266H3.08251C1.73861 4.80266 0.86731 3.90342 0.86731 2.76358C0.86731 1.60156 1.76436 0.721191 3.13515 0.721191C4.50481 0.721191 5.34699 1.59936 5.37387 2.76027C5.37387 3.90011 4.50481 4.80266 3.10939 4.80266ZM1.34774 6.27403H5.0603V18.0372H1.34774V6.27403Z" fill="#191919"/>
</svg>
