<svg width="77" height="16" viewBox="0 0 77 16" fill="none" xmlns="http://www.w3.org/2000/svg">
<path fill-rule="evenodd" clip-rule="evenodd" d="M23.7224 0.0340707C26.9751 0.0340707 30.7496 2.60712 30.7496 8.04996L30.7189 8.87465H19.6104C19.7946 11.4148 21.5131 12.9651 23.5996 12.9651C25.4102 12.9651 26.6069 11.8437 27.2514 10.4581L30.5538 10.4669C30.5538 10.5376 30.4518 11.2751 30.083 11.9873C28.8189 14.5327 26.4074 16 23.7531 16C19.1194 16 16.0508 12.3713 16.0508 8.01713C16.0508 3.69573 19.1501 0.0340707 23.7224 0.0340707ZM39.8632 0.0340707C43.116 0.0340707 46.8905 2.60712 46.8905 8.04996L46.8598 8.87465H35.7512C35.9354 11.4148 37.6539 12.9651 39.7404 12.9651C41.551 12.9651 42.7477 11.8437 43.3922 10.4581L46.6946 10.4669C46.6946 10.5376 46.5925 11.2751 46.224 11.9873C44.9597 14.5327 42.5482 16 39.8939 16C35.2602 16 32.1916 12.3713 32.1916 8.01713C32.1916 3.69573 35.2909 0.0340707 39.8632 0.0340707ZM68.858 4.43279e-05L68.981 0.000685326C70.6686 0.0242922 72.6224 0.780864 73.8294 2.48017L73.8363 0.52637L76.8867 0.535583V9.61818H76.8912C76.8912 9.61818 76.8849 10.8348 76.8808 12.2213C76.8818 12.2213 76.8828 12.2214 76.8837 12.2214V15.8422L76.0366 15.8377C74.7069 15.8377 73.7326 15.0808 73.4333 13.8749C72.1803 15.2749 70.3504 15.987 68.7883 15.9653C64.6767 15.9079 61.7432 12.3041 61.7966 7.88414C61.8496 3.49719 64.8694 -0.0567005 68.981 0.000685326L68.858 4.43279e-05ZM8.38502 0.0797875C12.0981 0.0797875 14.553 2.94975 14.553 7.00715V15.551H11.0548V7.40311C11.0548 4.86306 9.79665 3.24666 7.55651 3.24666C5.63872 3.24666 3.55606 4.95864 3.55606 7.0989C3.56314 7.30053 3.50816 15.2243 3.50596 15.5411L3.5059 15.551H0.00758794L0 0.562481L0.84717 0.566895C2.10444 0.566895 3.04356 1.30034 3.40064 2.38943C4.72076 0.987501 6.4135 0.0797875 8.38502 0.0797875ZM50.1904 0.528952L54.3935 10.4911L58.6274 0.528952H62.4633L55.7437 15.5053H53.074L46.3545 0.528952H50.1904ZM69.4644 3.17447C66.979 3.13983 65.3572 5.29457 65.3253 7.93346C65.293 10.6051 66.8626 12.7714 69.3481 12.8061C71.772 12.84 73.3932 10.7511 73.4259 8.04641C73.4581 5.37461 71.8884 3.20834 69.4644 3.17447ZM23.6303 2.87103C21.5743 2.87103 20.0707 4.42141 19.8251 6.40064H27.2207C27.0058 4.32246 25.5943 2.87103 23.6303 2.87103ZM39.7712 2.87103C37.7152 2.87103 36.2115 4.42141 35.9661 6.40064H43.3615C43.1467 4.32246 41.7352 2.87103 39.7712 2.87103Z" fill="#191919"/>
</svg>
